<svg xmlns="http://www.w3.org/2000/svg" width="76" height="80" fill="none" viewBox="0 0 76 80">
    <path fill="#fff" fill-rule="evenodd" d="M12.035 52.566a7.337 7.337 0 0 1-10.336-.95 7.331 7.331 0 0 1 .95-10.334 7.266 7.266 0 0 1 1.818-1.112c-.443-10.208 3.3-20.144 10.443-27.49a37.175 37.175 0 0 1 15.637-9.592L29.875 0l10.451 3.342-8.117 7.38-.672-3.087a32.574 32.574 0 0 0-13.304 8.277 32.363 32.363 0 0 0-9.137 23.885 7.332 7.332 0 0 1 3.888 2.435 7.334 7.334 0 0 1-.95 10.334zM50.92 80l-25.01-10.35-5.351-21.56.406-16.162 2.17-2.178 6.3-.01 2.261 2.172.44 8.71 15.519-37.5 2.883-1.15 5.845 2.418 1.228 2.853-6.988 16.895 2.883-1.152 5.846 2.42 1.226 2.852-2.3 5.563 2.887-1.15 5.843 2.419 1.23 2.852-2.372 5.733 2.883-1.15 5.843 2.417 1.23 2.853-10.28 24.837L50.922 80z" clip-rule="evenodd" opacity=".5"/>
</svg>
