<svg xmlns="http://www.w3.org/2000/svg" width="60" height="60" fill="none" viewBox="0 0 60 60">
    <mask id="a" width="60" height="60" x="0" y="0" maskUnits="userSpaceOnUse">
        <path fill="#fff" fill-rule="evenodd" d="M0 0h60v60H0V0z" clip-rule="evenodd"/>
    </mask>
    <g mask="url(#a)">
        <path fill="#fff" fill-rule="evenodd" d="M53.184 8.41a.929.929 0 0 1-.666.271.93.93 0 0 1-.938-.937c0-.244.104-.488.272-.656a.958.958 0 0 1 1.023-.207.862.862 0 0 1 .31.207.945.945 0 0 1 0 1.321zm0 5.624a.929.929 0 0 1-.666.272.924.924 0 0 1-.863-1.293.934.934 0 0 1 1.05-.563l.17.056.169.085c.046.037.093.075.14.122a.943.943 0 0 1 .197.3.932.932 0 0 1-.197 1.021zm.197 5.325a.943.943 0 0 1-.197.3c-.094.085-.197.16-.309.207a.927.927 0 0 1-.357.065.931.931 0 0 1-.666-.272.941.941 0 0 1-.197-.3.943.943 0 0 1-.075-.365c0-.244.104-.478.272-.657.358-.356.986-.346 1.333 0 .168.17.27.413.27.657a.943.943 0 0 1-.074.365zm0 5.625a.943.943 0 0 1-.197.3c-.094.085-.197.16-.309.207a.927.927 0 0 1-.357.065.926.926 0 0 1-.356-.065 1.005 1.005 0 0 1-.31-.207.941.941 0 0 1-.197-.3.812.812 0 0 1-.075-.365c0-.122.029-.244.075-.357a.928.928 0 0 1 1.05-.563c.058.02.113.039.17.057l.169.085a.943.943 0 0 1 .338.422.932.932 0 0 1 .073.356.943.943 0 0 1-.074.365zm0 5.625a.943.943 0 0 1-.197.3.929.929 0 0 1-.666.272.931.931 0 0 1-.666-.272.941.941 0 0 1-.197-.3.943.943 0 0 1-.075-.365c0-.122.029-.244.075-.357a.941.941 0 0 1 .197-.3.94.94 0 0 1 1.023-.206.79.79 0 0 1 .31.206.943.943 0 0 1 .196.3.932.932 0 0 1 .074.357.943.943 0 0 1-.074.365zm0 5.625a.942.942 0 0 1-.197.3.928.928 0 0 1-.666.272.924.924 0 0 1-.938-.937c0-.244.104-.488.272-.656a.958.958 0 0 1 1.023-.207.962.962 0 0 1 .31.207c.168.178.27.412.27.656a.978.978 0 0 1-.074.365zm0 5.625a.942.942 0 0 1-.197.3.932.932 0 0 1-.666.272.924.924 0 0 1-.666-.272.94.94 0 0 1-.197-.3.943.943 0 0 1-.075-.365c0-.122.029-.244.075-.356a.94.94 0 0 1 .197-.3c.048-.047.095-.085.14-.122l.17-.085.17-.056a.962.962 0 0 1 .853.263.942.942 0 0 1 .196.3.931.931 0 0 1 .074.356.942.942 0 0 1-.074.365zm-.197 5.925a.925.925 0 0 1-.667.272.935.935 0 0 1-.665-.271.942.942 0 0 1-.197-.3.944.944 0 0 1-.075-.366.945.945 0 0 1 .582-.863.94.94 0 0 1 1.023.207.945.945 0 0 1 0 1.322zm.197 5.325a.943.943 0 0 1-.197.3.963.963 0 0 1-.666.282.933.933 0 0 1-.356-.075.932.932 0 0 1-.581-.872c0-.244.103-.478.271-.656.048-.047.095-.085.14-.122l.17-.085a.898.898 0 0 1 .714 0 .962.962 0 0 1 .309.207.943.943 0 0 1 .196.3.932.932 0 0 1 .074.356.943.943 0 0 1-.074.365zM47.56 8.41a.928.928 0 0 1-.666.272.93.93 0 0 1-.938-.937c0-.122.029-.244.075-.356a.941.941 0 0 1 .197-.3c.347-.357.975-.357 1.332 0 .085.084.15.187.197.3a.932.932 0 0 1-.197 1.021zm0 5.625a.929.929 0 0 1-.666.272.931.931 0 0 1-.938-.937c0-.244.104-.488.272-.656a.96.96 0 0 1 .853-.263l.17.056c.055.028.112.056.16.085a.941.941 0 0 1 .347.422.932.932 0 0 1-.198 1.021zm.197 5.325a.941.941 0 0 1-.197.3.929.929 0 0 1-.666.272.931.931 0 0 1-.666-.272.941.941 0 0 1-.197-.3.943.943 0 0 1-.075-.365c0-.122.029-.244.075-.357a.941.941 0 0 1 .197-.3.863.863 0 0 1 .31-.206.958.958 0 0 1 1.022.206.945.945 0 0 1 .271.657.943.943 0 0 1-.074.365zm-.197 5.925a.929.929 0 0 1-.666.272.931.931 0 0 1-.666-.272.941.941 0 0 1-.197-.3.943.943 0 0 1-.075-.365c0-.122.029-.244.075-.357a.941.941 0 0 1 .197-.3c.357-.356.986-.356 1.332 0 .085.085.15.188.197.3a.932.932 0 0 1-.197 1.022zm.197 5.325a.941.941 0 0 1-.197.3c-.094.085-.197.16-.309.207a.927.927 0 0 1-.357.065.931.931 0 0 1-.938-.937c0-.122.029-.244.075-.357a.941.941 0 0 1 .197-.3c.347-.346.986-.356 1.332 0 .085.085.15.188.197.3a.932.932 0 0 1 .074.357.943.943 0 0 1-.074.365zm-.197 5.925a.925.925 0 0 1-.666.272.93.93 0 0 1-.938-.937c0-.244.104-.488.272-.656.347-.347.986-.357 1.332 0a.945.945 0 0 1 0 1.321zm.197 5.325a.94.94 0 0 1-.197.3.925.925 0 0 1-.666.272.932.932 0 0 1-.862-1.294.94.94 0 0 1 .196-.3.862.862 0 0 1 .31-.206.897.897 0 0 1 .543-.056l.17.056.169.085c.046.037.093.075.14.122a.94.94 0 0 1 .197.3.931.931 0 0 1 .074.356.942.942 0 0 1-.074.365zm0 5.625a.942.942 0 0 1-.197.3.933.933 0 0 1-.666.272.924.924 0 0 1-.938-.937.945.945 0 0 1 .582-.863.958.958 0 0 1 1.022.207.945.945 0 0 1 .271.656.943.943 0 0 1-.074.365zm0 5.625a.941.941 0 0 1-.197.3.962.962 0 0 1-.666.282.933.933 0 0 1-.356-.075.951.951 0 0 1-.31-.206.941.941 0 0 1-.197-.3.943.943 0 0 1-.075-.366c0-.122.029-.244.075-.356a.924.924 0 0 1 1.22-.506l.169.084a.962.962 0 0 1 .412.778.943.943 0 0 1-.075.365zm-5.822-44.7a.928.928 0 0 1-.666.272.931.931 0 0 1-.666-1.593.789.789 0 0 1 .31-.207.94.94 0 0 1 .713 0 .789.789 0 0 1 .31.207.962.962 0 0 1 .27.656.93.93 0 0 1-.27.665zm0 5.625a.929.929 0 0 1-.666.272.931.931 0 0 1-.666-1.593c.357-.347.975-.357 1.332 0 .085.084.15.187.197.3a.932.932 0 0 1-.197 1.021zm.207 5.325a1.16 1.16 0 0 1-.207.3.929.929 0 0 1-.666.272.931.931 0 0 1-.666-.272.943.943 0 0 1-.197-.3.943.943 0 0 1-.075-.365c0-.122.029-.244.075-.357a.943.943 0 0 1 .197-.3.959.959 0 0 1 1.023-.206.962.962 0 0 1 .31.206.945.945 0 0 1 .27.657.938.938 0 0 1-.064.365zm-.207 5.925a.929.929 0 0 1-.666.272.931.931 0 0 1-.938-.937c0-.122.029-.244.075-.357a.943.943 0 0 1 .197-.3.94.94 0 0 1 1.332 0c.085.085.15.188.197.3a.932.932 0 0 1-.197 1.022zm0 5.625c-.094.085-.197.16-.309.207a.927.927 0 0 1-.357.065.926.926 0 0 1-.356-.065 1.13 1.13 0 0 1-.31-.207.932.932 0 0 1-.197-1.021.943.943 0 0 1 .197-.3c.347-.347.986-.357 1.332 0 .085.084.15.187.197.3a.932.932 0 0 1-.197 1.021zm0 5.625a.925.925 0 0 1-.666.272.931.931 0 0 1-.666-.272.942.942 0 0 1-.197-.3.838.838 0 0 1-.075-.365c0-.244.104-.478.272-.656a.862.862 0 0 1 .31-.207.958.958 0 0 1 1.022.207.945.945 0 0 1 0 1.321zm.197 5.325a.94.94 0 0 1-.197.3.932.932 0 0 1-.666.272.935.935 0 0 1-.666-.272.942.942 0 0 1-.197-.3.838.838 0 0 1-.075-.365c0-.122.029-.244.075-.356a.942.942 0 0 1 .197-.3.94.94 0 0 1 1.332 0 .94.94 0 0 1 .197.3.931.931 0 0 1 .074.356.978.978 0 0 1-.074.365zm-.197 5.925a.925.925 0 0 1-.666.272.924.924 0 0 1-.666-.271.944.944 0 0 1-.197-.3.943.943 0 0 1-.075-.366c0-.244.104-.488.272-.656a.959.959 0 0 1 1.023-.207.96.96 0 0 1 .31.207.945.945 0 0 1 0 1.322zm.197 5.325a.941.941 0 0 1-.197.3.962.962 0 0 1-.666.282.933.933 0 0 1-.356-.075.932.932 0 0 1-.581-.872c0-.244.103-.478.271-.656.048-.047.095-.085.14-.122l.17-.085a.603.603 0 0 1 .17-.056.96.96 0 0 1 .852.263c.085.084.15.187.197.3a.932.932 0 0 1 .074.356.943.943 0 0 1-.074.365zM36.31 8.41a.944.944 0 0 1-.666.272.931.931 0 0 1-.666-1.593c.347-.357.986-.357 1.332 0a.945.945 0 0 1 0 1.321zm0 5.625a.929.929 0 0 1-.666.272.931.931 0 0 1-.938-.937c0-.122.029-.244.075-.357a.943.943 0 0 1 .197-.3.983.983 0 0 1 1.332 0c.085.085.15.188.197.3a.932.932 0 0 1-.197 1.022zm.197 5.325a.941.941 0 0 1-.197.3.929.929 0 0 1-.666.272.931.931 0 0 1-.666-.272.943.943 0 0 1-.197-.3.812.812 0 0 1-.075-.365c0-.244.104-.488.272-.657.347-.346.975-.356 1.332 0 .085.085.15.188.197.3a.932.932 0 0 1 .074.357.943.943 0 0 1-.074.365zm0 22.5a.94.94 0 0 1-.197.3.925.925 0 0 1-.666.272.924.924 0 0 1-.666-.272.942.942 0 0 1-.197-.3.943.943 0 0 1-.075-.365c0-.122.029-.244.075-.356a.942.942 0 0 1 .197-.3c.048-.047.095-.085.14-.122l.17-.085.17-.056c.121-.019.252-.019.373 0l.17.056c.055.028.112.057.16.085a.94.94 0 0 1 .347.422.931.931 0 0 1 .073.356.942.942 0 0 1-.074.365zm0 5.625a.942.942 0 0 1-.197.3.925.925 0 0 1-.666.272.935.935 0 0 1-.666-.271.932.932 0 0 1-.272-.666c0-.244.104-.488.272-.656a.94.94 0 0 1 1.332 0 .945.945 0 0 1 .271.656.943.943 0 0 1-.074.365zm0 5.625a.941.941 0 0 1-.197.3.963.963 0 0 1-.666.282.945.945 0 0 1-.938-.947c0-.122.029-.244.075-.356a.943.943 0 0 1 .197-.3.862.862 0 0 1 .31-.207.962.962 0 0 1 1.022.207.945.945 0 0 1 .271.656.943.943 0 0 1-.074.365zM25.312 35.88a.94.94 0 0 1-.937-.938v-9.375c0-.525.422-.938.938-.938h9.375c.514 0 .937.413.937.938v9.375a.94.94 0 0 1-.937.937h-9.376zm5.568 5.98a.923.923 0 0 1-.506.507.922.922 0 0 1-.355.065.92.92 0 0 1-.666-.272.896.896 0 0 1-.197-.3.916.916 0 0 1 0-.722.932.932 0 0 1 1.05-.563l.168.057.17.085c.046.037.093.075.14.122.084.084.15.187.196.3a.916.916 0 0 1 .075.356.962.962 0 0 1-.075.365zm-.196 5.925a.922.922 0 0 1-.666.272.92.92 0 0 1-.937-.937c0-.244.102-.488.272-.656.347-.357.984-.357 1.331 0a.945.945 0 0 1 0 1.322zm0 5.626a.947.947 0 0 1-.31.206.932.932 0 0 1-.355.075.93.93 0 0 1-.356-.075.942.942 0 0 1-.31-.206.897.897 0 0 1-.197-.3.916.916 0 0 1 0-.722.897.897 0 0 1 .197-.3c.046-.047.094-.085.14-.122l.17-.085a.592.592 0 0 1 .167-.056.945.945 0 0 1 .854 1.584zm-5.429-11.55a.923.923 0 0 1-.196.3.932.932 0 0 1-.665.271.92.92 0 0 1-.666-.272.962.962 0 0 1-.272-.666c0-.121.027-.243.075-.355a.894.894 0 0 1 .197-.3.94.94 0 0 1 1.331 0c.084.084.15.187.196.3a.917.917 0 0 1 .076.356.963.963 0 0 1-.076.365zm-.196 5.925a.932.932 0 0 1-.665.271.932.932 0 0 1-.666-.271.896.896 0 0 1-.197-.3.928.928 0 0 1 .197-1.022.936.936 0 0 1 1.603.656.932.932 0 0 1-.272.666zm.196 5.325a.924.924 0 0 1-.196.3.947.947 0 0 1-.31.206.932.932 0 0 1-.355.075.93.93 0 0 1-.356-.075.942.942 0 0 1-.31-.206.895.895 0 0 1-.197-.3.916.916 0 0 1 0-.722.895.895 0 0 1 .197-.3.846.846 0 0 1 .31-.207.926.926 0 0 1 1.217.507.917.917 0 0 1 .076.356.928.928 0 0 1-.076.365zm-5.82-44.7a.928.928 0 0 1-.666.271.928.928 0 0 1-.863-1.293.895.895 0 0 1 .197-.3c.347-.357.984-.357 1.331 0a.945.945 0 0 1 .272.656.932.932 0 0 1-.272.665zm0 5.624a.928.928 0 0 1-.666.272.928.928 0 0 1-.863-1.293.895.895 0 0 1 .197-.3.984.984 0 0 1 .852-.263l.17.056.169.085c.046.037.093.075.14.122.084.084.15.187.196.3a.932.932 0 0 1-.196 1.022zm.195 5.325a.924.924 0 0 1-.196.3 1.12 1.12 0 0 1-.31.207.924.924 0 0 1-.355.065.928.928 0 0 1-.666-.272.895.895 0 0 1-.197-.3.916.916 0 0 1 0-.722.895.895 0 0 1 .197-.3c.355-.356.984-.346 1.331 0a.926.926 0 0 1 .196 1.022zm-.196 5.925a.928.928 0 0 1-.665.272.928.928 0 0 1-.863-1.294.895.895 0 0 1 .197-.3.955.955 0 0 1 1.021-.206.947.947 0 0 1 .31.206c.084.085.15.188.196.3a.932.932 0 0 1-.196 1.022zm0 5.625a.928.928 0 0 1-.665.272.923.923 0 0 1-.356-.065 1.114 1.114 0 0 1-.31-.207.928.928 0 0 1-.197-1.021.895.895 0 0 1 .197-.3c.347-.357.984-.347 1.331 0 .084.084.15.187.196.3a.932.932 0 0 1-.196 1.022zm0 5.625a.922.922 0 0 1-.666.272.92.92 0 0 1-.937-.937c0-.244.102-.478.272-.656a.955.955 0 0 1 1.021-.207.946.946 0 0 1 .31.207.963.963 0 0 1 .272.656.932.932 0 0 1-.272.665zm0 5.625a.922.922 0 0 1-.666.272.92.92 0 0 1-.937-.937c0-.122.027-.244.075-.356a.894.894 0 0 1 .197-.3c.046-.047.094-.085.14-.122l.17-.085.167-.056c.123-.019.254-.019.375 0l.17.056c.055.028.113.057.159.085a.923.923 0 0 1 .347.422.932.932 0 0 1-.196 1.022zm.196 5.325a.925.925 0 0 1-.196.3.922.922 0 0 1-.666.272.92.92 0 0 1-.937-.937.941.941 0 0 1 .582-.863.957.957 0 0 1 1.021.207.926.926 0 0 1 .196 1.022zm-.196 5.925a.947.947 0 0 1-.31.207.932.932 0 0 1-.355.075.93.93 0 0 1-.356-.075.942.942 0 0 1-.31-.206.895.895 0 0 1-.197-.3.916.916 0 0 1 0-.722.895.895 0 0 1 .197-.3c.046-.047.094-.085.14-.122l.17-.085a.593.593 0 0 1 .167-.056.896.896 0 0 1 .544.056.946.946 0 0 1 .31.207.963.963 0 0 1 .272.656.932.932 0 0 1-.272.666zM13.81 14.035a.928.928 0 0 1-.665.272.928.928 0 0 1-.863-1.293.896.896 0 0 1 .197-.3.982.982 0 0 1 1.331 0c.084.084.15.187.196.3a.932.932 0 0 1-.196 1.022zm.196 5.325a.924.924 0 0 1-.196.3.928.928 0 0 1-.665.272.928.928 0 0 1-.666-.272.896.896 0 0 1-.197-.3.916.916 0 0 1 0-.722.896.896 0 0 1 .197-.3.848.848 0 0 1 .31-.206.957.957 0 0 1 1.021.206.946.946 0 0 1 .272.657.788.788 0 0 1-.076.365zm-.196 5.925a.928.928 0 0 1-.665.272.928.928 0 0 1-.863-1.294.896.896 0 0 1 .197-.3.848.848 0 0 1 .31-.206.957.957 0 0 1 1.021.206c.084.085.15.188.196.3a.932.932 0 0 1-.196 1.022zm.196 5.325a.924.924 0 0 1-.196.3.928.928 0 0 1-.665.272.928.928 0 0 1-.666-.272.896.896 0 0 1-.197-.3.916.916 0 0 1 0-.722.896.896 0 0 1 .197-.3.77.77 0 0 1 .31-.206.935.935 0 0 1 1.217.506.917.917 0 0 1 .076.357.928.928 0 0 1-.076.365zm0 5.625a.923.923 0 0 1-.196.3.928.928 0 0 1-.665.272.92.92 0 0 1-.938-.937c0-.244.103-.488.272-.656a.955.955 0 0 1 1.021-.207.865.865 0 0 1 .31.207.963.963 0 0 1 .272.656.963.963 0 0 1-.076.365zm0 5.625a.923.923 0 0 1-.196.3.922.922 0 0 1-.666.272.932.932 0 0 1-.665-.272.962.962 0 0 1-.272-.666c0-.121.027-.243.075-.355a.895.895 0 0 1 .197-.3.936.936 0 0 1 1.527 1.022zm-.196 5.925a.922.922 0 0 1-.666.272.932.932 0 0 1-.665-.271.897.897 0 0 1-.197-.3.927.927 0 0 1 .197-1.022.955.955 0 0 1 1.021-.207.865.865 0 0 1 .31.207.946.946 0 0 1 .272.656.932.932 0 0 1-.272.666zm.196 5.325a.924.924 0 0 1-.196.3.947.947 0 0 1-.31.207.932.932 0 0 1-.355.075.941.941 0 0 1-.666-1.603.963.963 0 0 1 1.331 0c.084.084.15.187.196.3a.917.917 0 0 1 .076.356.928.928 0 0 1-.076.365zm9.723-34.772a.847.847 0 0 1 .31-.206.957.957 0 0 1 1.021.206.928.928 0 0 1 .196 1.022.924.924 0 0 1-.196.3.928.928 0 0 1-.665.272.928.928 0 0 1-.666-.272.895.895 0 0 1-.197-.3.927.927 0 0 1 .197-1.022zm-.197-5.325a.895.895 0 0 1 .197-.3c.046-.046.094-.084.14-.121l.17-.085.167-.056c.31-.056.63.047.854.263a.946.946 0 0 1 .272.656.932.932 0 0 1-.937.937.928.928 0 0 1-.938-.937c0-.122.019-.244.075-.357zm0-5.624a.895.895 0 0 1 .197-.3c.347-.357.984-.357 1.331 0 .084.084.15.187.196.3a.932.932 0 0 1-.862 1.294.928.928 0 0 1-.862-1.294zm5.822 10.95c.347-.347.975-.357 1.331 0a.927.927 0 0 1 .196 1.022.924.924 0 0 1-.196.3.928.928 0 0 1-.665.271.928.928 0 0 1-.666-.272.897.897 0 0 1-.197-.3.799.799 0 0 1-.075-.365c0-.244.102-.478.272-.657zm-.197-5.326a.897.897 0 0 1 .346-.421c.048-.028.104-.057.16-.085l.168-.056a.961.961 0 0 1 .854.263.945.945 0 0 1 0 1.321.928.928 0 0 1-.665.272.928.928 0 0 1-.863-1.293zm.197-5.924a.768.768 0 0 1 .31-.207.935.935 0 0 1 .711 0 .785.785 0 0 1 .31.207.962.962 0 0 1 .271.656.93.93 0 0 1-.27.665.945.945 0 0 1-.666.272.928.928 0 0 1-.938-.937c0-.244.102-.478.272-.656zM8.38 19.359a.924.924 0 0 1-.196.3.928.928 0 0 1-.665.272.928.928 0 0 1-.666-.272.897.897 0 0 1-.197-.3.916.916 0 0 1 0-.722.897.897 0 0 1 .197-.3.955.955 0 0 1 1.021-.206.946.946 0 0 1 .31.206c.084.085.15.188.196.3a.917.917 0 0 1 .076.357.927.927 0 0 1-.076.365zm0 5.625a.924.924 0 0 1-.196.3.928.928 0 0 1-.665.272.922.922 0 0 1-.356-.065 1.116 1.116 0 0 1-.31-.207.928.928 0 0 1-.197-1.021.897.897 0 0 1 .197-.3c.347-.357.975-.357 1.331 0 .084.084.15.187.196.3a.917.917 0 0 1 .076.356.927.927 0 0 1-.076.365zm0 5.625a.924.924 0 0 1-.196.3.928.928 0 0 1-.665.272.928.928 0 0 1-.863-1.294.897.897 0 0 1 .197-.3.935.935 0 0 1 1.02-.206.786.786 0 0 1 .311.206c.084.085.15.188.196.3a.917.917 0 0 1 .076.357.788.788 0 0 1-.076.365zm-.196 5.925a.922.922 0 0 1-.666.272.928.928 0 0 1-.665-.272.896.896 0 0 1-.197-.3.825.825 0 0 1-.075-.365c0-.244.102-.478.272-.656a.846.846 0 0 1 .31-.207.957.957 0 0 1 1.021.207.946.946 0 0 1 .272.656.968.968 0 0 1-.272.665zm.196 5.325a.923.923 0 0 1-.196.3.932.932 0 0 1-.665.272.92.92 0 0 1-.666-.272.962.962 0 0 1-.272-.666c0-.121.027-.243.075-.355a.896.896 0 0 1 .197-.3c.046-.047.094-.085.14-.122l.17-.085.167-.056a.896.896 0 0 1 .544.056.866.866 0 0 1 .31.207c.084.084.15.187.196.3a.917.917 0 0 1 .076.356.813.813 0 0 1-.076.365zm0 5.625a.925.925 0 0 1-.196.3.932.932 0 0 1-.665.272.92.92 0 0 1-.666-.271.941.941 0 0 1 .31-1.528.936.936 0 0 1 1.217 1.227zm-.196 5.925a.946.946 0 0 1-.31.207.932.932 0 0 1-.355.075.93.93 0 0 1-.356-.075.943.943 0 0 1-.31-.206.897.897 0 0 1-.197-.3.916.916 0 0 1 0-.722.933.933 0 0 1 1.05-.563c.056.01.112.028.168.056l.17.085c.046.037.094.075.14.122a.963.963 0 0 1 .272.656.932.932 0 0 1-.272.666zM59.063 0H9.366a.937.937 0 0 0-.667.281L.272 8.71A.942.942 0 0 0 0 9.366v49.697c0 .525.422.937.938.937h58.125a.935.935 0 0 0 .937-.937V.938A.94.94 0 0 0 59.063 0z" clip-rule="evenodd"/>
    </g>
</svg>
